<?xml version="1.0" encoding="UTF-8"?>
<svg xmlns="http://www.w3.org/2000/svg" xmlns:xlink="http://www.w3.org/1999/xlink" width="0px" height="0px" viewBox="0 0 32 32" version="1.1">
<g id="surface1">
<path style=" stroke:none;fill-rule:evenodd;fill:rgb(49.411765%,72.941178%,89.411765%);fill-opacity:1;" d="M 12.683594 10.941406 L 5.132812 24.105469 L 3.367188 21.097656 L 5.402344 17.574219 L 1.363281 17.5625 L 0.5 16.058594 L 1.378906 14.523438 L 7.132812 14.539062 L 9.199219 10.953125 Z M 13.261719 21.464844 L 28.363281 21.46875 L 26.65625 24.507812 L 22.605469 24.496094 L 24.617188 28.027344 L 23.757812 29.527344 L 21.992188 29.53125 L 19.132812 24.503906 L 15.011719 24.496094 Z M 22.050781 15.699219 L 14.503906 2.53125 L 17.972656 2.5 L 19.988281 6.035156 L 22.019531 2.519531 L 23.742188 2.519531 L 24.625 4.054688 L 21.734375 9.0625 L 23.785156 12.65625 Z M 22.050781 15.699219 "/>
<path style=" stroke:none;fill-rule:evenodd;fill:rgb(32.156864%,46.666667%,76.47059%);fill-opacity:1;" d="M 9.957031 16.367188 L 17.507812 29.53125 L 14.039062 29.5625 L 12.023438 26.027344 L 9.992188 29.542969 L 8.269531 29.542969 L 7.386719 28.007812 L 10.277344 23.003906 L 8.222656 19.40625 Z M 18.726562 10.5625 L 3.625 10.5625 L 5.332031 7.523438 L 9.382812 7.535156 L 7.371094 4.003906 L 8.234375 2.503906 L 9.996094 2.5 L 12.859375 7.523438 L 16.980469 7.53125 Z M 19.316406 21.117188 L 26.867188 7.953125 L 28.632812 10.960938 L 26.597656 14.488281 L 30.636719 14.5 L 31.5 16 L 30.621094 17.539062 L 24.867188 17.519531 L 22.800781 21.109375 Z M 19.316406 21.117188 "/>
</g>
</svg>
